<?xml version="1.0" encoding="utf-8"?>
<!-- Generator: Adobe Illustrator 27.0.0, SVG Export Plug-In . SVG Version: 6.00 Build 0)  -->
<svg version="1.1" id="Layer_1" xmlns="http://www.w3.org/2000/svg" xmlns:xlink="http://www.w3.org/1999/xlink" x="0px" y="0px"
	 viewBox="0 0 847.5 595.8" style="enable-background:new 0 0 847.5 595.8;" xml:space="preserve">
<style type="text/css">
	.st0{fill-rule:evenodd;clip-rule:evenodd;fill:#32BB78;}
</style>
<g>
	<path class="st0" d="M560.5,198.6l-46.7,9.9v188.7h46.7V198.6z"/>
	<path class="st0" d="M427.5,350.5c-12.9,0-23.4-10.5-23.4-23.4s10.5-23.4,23.4-23.4s23.4,10.5,23.4,23.4l0,0
		C450.9,340,440.4,350.5,427.5,350.5L427.5,350.5 M427.5,255c-39.8,0-72.1,32.3-72.1,72.1s32.3,72.1,72.1,72.1s72.1-32.3,72.1-72.1
		l0,0C499.6,287.3,467.3,255,427.5,255L427.5,255"/>
	<path class="st0" d="M427.5,416.1c12.9,0,23.4,10.5,23.4,23.4s-10.5,23.4-23.4,23.4s-23.4-10.5-23.4-23.4l0,0
		C404.1,426.5,414.6,416.1,427.5,416.1"/>
	<g>
		<path class="st0" d="M280.5,350.5h-35.1v-29.2h35.1c8.1,0.2,14.4,6.9,14.2,15C294.5,344,288.2,350.3,280.5,350.5z M245.4,245.4h26
			c8.1,0.2,14.4,6.9,14.2,15c-0.2,7.8-6.5,14-14.2,14.2h-26V245.4z M323.5,292.2c17.8-28.8,8.9-66.6-20-84.4
			c-9.7-6-20.8-9.1-32.2-9.2h-72.7v198.6h81.8c33.9,0,61.3-27.5,61.3-61.4C341.7,319.5,335.2,303.8,323.5,292.2L323.5,292.2z"/>
	</g>
	<path class="st0" d="M648.9,304.4v-46.7h-23.4V222l-46.7,9.9v120.9c0,28.5,17.7,44.9,43.8,46.3c0.3,0,0.6,0.1,0.8,0.1h0.5
		c0.6,0,1.1,0.1,1.7,0.1h0.6c8,0,15.8-2,22.8-5.8V359c-3.4,0.9-6.9,1.4-10.4,1.4c-9.3,0-12.9-8.2-12.9-19.3v-36.7H648.9z"/>
</g>
</svg>
